<svg xmlns="http://www.w3.org/2000/svg" viewBox="0 0 1854.11 725.13"><defs><style>.cls-1{fill:#55ed00;}.cls-2,.cls-3{fill:#4d4f53;}.cls-2{fill-rule:evenodd;}</style></defs><title>Ресурс 1</title><g id="Слой_2" data-name="Слой 2"><g id="Слой_1-2" data-name="Слой 1"><path class="cls-1" d="M83.33,706.5v6c0-5-2.67-9.93-5.89-14.92v.64c0-.28-.12-.56-.12-.84l-1-1.53V717c0-5.23-3.79-10.48-8-15.72v21.08c0-6.73-8.5-13.5-14.79-20.24v13.67c0-2.29-11-13.79-11.57-14.55-.36-.45-3.35-3.63-6.21-6.94v17.06c0-3.19-4.28-6.37-8.75-9.6v17.58c0-4.72-16-9.55-16-14.43v-22.1c-1.21-1.21-2-2.38-2-3.59v-3.78c-1.09-.85-2.1-1.66-2.26-2.54,0,7.25,0,14.47,0,21.69,0-1-1.65-2-3.27-3v18.06c0-.85-3.34-1.77-3.34-2.73Q.13,382.57.19,58.26c0,.2.2.36.48.57V40.08c0,1.77,5.16,3.58,6,5.44,0-7.14,0-14.27,0-21.41,0,1.78,4.76,3.59,4.76,5.45v4.95c1.73,1.62,4.11,3.23,6.17,4.8,0-8.51,0-17,0-25.6,0,1.08,1.34,2.18,2.55,3.26q-.12,19.79-.73,40c1,43.91-1.69,94.91-2.58,139.38C20.63,152.21,24.38,100.92,31.23,58q1.69-22.68,3.19-45.2a5.93,5.93,0,0,1,1.77,3.55V23.1a66.46,66.46,0,0,0,6.49,7.22q-.36,14.26-.76,28.59c0,1.41.16,3.14.2,4.63-.56,44.72-2.62,90.27-3.83,135.11,1.93-43.22,4.27-86.36,6.49-129.55.48-3.3,1-6.56,1.57-9.83,1.37-15.77,2.42-31.93,3.43-47.86l.32.45c-.4,15.88-.93,31.73-1.49,47.61,0,9.27,0,18.35-.16,27.66.48-9.2,1-18.39,1.45-27.54.73-15.16,1.41-30.24,2-45.32,1.49,1.9,3,3.79,4.27,5.65-.28,13.35-.56,26.69-.93,40.11,1.9,33.23.24,76-.12,109.79C56.19,133.7,58,96.2,58,60.28c.41-10.81.81-21.61,1.13-32.38v1.29c.25.32.49.64.77,1V12.3c0,.12.08.24.08.36V2.94A17.43,17.43,0,0,0,61.43,9.6c-.2,16.93-.48,33.86-.89,50.88,1.94,5.2,1,112.57,1,124.5,1-38.66,2.5-77.41,3.11-116,3.79,34.87,4.19,76.52,5.32,112,1.13-39.27,3.14-80.43,2.86-119.42.37,0,1-24.23,1.57-50.08,1.37,3.47,3.31,6.94,5.13,10.45Q80,42,80.18,62.13C87.36,93.38,89.49,167.52,91.39,202c.28-45,2.17-94.75.28-138.94.16-7.1.32-17.41.48-30.16a34.46,34.46,0,0,1,2.58,11.93v4.2c.33.8.65,1.58.93,2.34V27.66c0,12.62,9.19,25.24,9.19,37.9q0,323.91,0,647.84c0-9.12-4.43-18.23-7.13-27.34v23.26c0-8.42-4.76-16.85-8.27-25.27v37.81c0-5.12-2.86-10.24-6.12-15.36Z"/><path class="cls-1" d="M584.56,321.22c-26.36,15.4-49.15,8.79-75.51,24.14v0l-2.79,1.62.05,0c-2.42,1.41-4.84,2.83-7.26,4.23l0,0-5.93,3.47-.08.08-.08,0-.12,0-.08,0-.08.08-.08,0-.08,0-.13.08-.08,0-.08,0-.12.09-.08,0-.08,0-.08.07-.12.05-.08,0-.08.08-.12,0-.08,0-.09.08-.07,0-.09,0-.12.08-.08,0-.08,0-.12.08-.08,0-.08,0-.08.09-.12,0-.08,0-.08,0-.08.08-.12,0-.09.08-.07,0-.13,0-.08,0-.08.08-.08,0-.12.08-.08,0-.08,0-.08,0-.12.08-.08,0-.08,0-.09.08-.11,0-.09,0-.08.09-.12,0-.08,0-.08.08-.08,0-.12,0-.08.07-.08,0-.12,0-.08.09-.09,0-.07,0-.08.08-.13,0-122.4,71.48.16.36Q223.76,512.65,82.76,595.78c.73-.39,1.86-.12,3.3.69-11.24,6.65-22.49,13.18-33.7,19.8,2-1.21,6.65,2.34,11.77,6.65-5.28,3.07-10.52,6.13-15.8,9.23,0,0,.2,0,.24,0l-3.79,2.22c1-.24,2-.45,3-.64C67.84,631.59,286.69,505.23,306.93,493c7.82-4.73,15.6-9.44,23.39-14.24-7.34,5.52-14.68,10.93-22.1,16.33-30.12,21.41-193.65,117-225,136.44-7.66,3.74-25.11,12.38-33.42,13.27-1.41.28-2.82.6-4.23.92.84.52,1.61,1,2.33,1.45l-6.2,3.63c1.29-.77,3.1-.6,5.24.12,1.29-.44,2.54-.81,3.75-1.21a11.65,11.65,0,0,0,1.77-.73c18.87-3.18,53.38-21.52,70.72-30.64,20.28-11.37,173.37-98,193.25-110.06q12-7.2,23.86-14.56c-7.82,5.08-15.6,10.2-23.46,15.2-20.2,12.9-173.57,100.27-194.17,112.45-9.76,6.49-19.64,12.74-29.52,18.94,17.14-8.38,34-17.61,50.6-27-23.83,14.47-47.94,28.54-73.14,40.35-2.65,1.54-5.36,3-8.1,4.39,39-12.37,224.81-118,260.82-138.56,3.47-1.94,6.89-3.92,10.36-5.89-3.39,2.06-6.77,4.11-10.2,6.17-36.41,22-208,119.62-246.63,137.08,1.54-.45,3-1,4.52-1.45C119.29,639.81,290.28,544,326.08,523.89c5.85-3.22,11.65-6.44,17.5-9.71-5.68,3.47-11.41,6.94-17.1,10.36-20,12.18-173.52,98.9-193.93,110.23,21.45-9.79,175.63-95,196.72-105.71L345,521.32c-5,3.06-10,6-15,9C292.53,553,118.68,652,78.52,669c41.58-10.76,220.47-107.48,259.41-126,8.68-3.87,17.34-7.82,26-11.77-8.06,5-16.13,9.83-24.23,14.68-40.92,24.58-235.5,137.84-281,147.92-.44,0-.85,0-1.25.08L32.73,708.43c2-1.17,7.09,3.11,9.19,1.86,1.65-1,3.3-1.94,5-2.86,6.49,2.17,14.75,7.41,18.7,5.11,1.78-1,3.55-2.09,5.32-3.1,7.14,3.27,14.32,6.66,18.27,4.36q21.9-12.88,43.83-25.64c4.75,2.74,8.74,4.15,11.17,2.74L348.86,571l0,0,32.94-19.23L419,529.86l0,.09,121.8-71.13-.12-.23c2.74-1.66,5.52-3.28,8.3-4.89l.12.29,4.2-2.46-.13-.29c2.95-1.69,5.89-3.43,8.88-5.12l.12.21,2-1.13L564,445c45.44-26.57-8.19-29.27,37.33-55.77l11.25-56.93,3.43-16.69ZM44.46,656.43q-7.62,4.41-15.24,8.9a4.52,4.52,0,0,1,3.58,0,118.8,118.8,0,0,1,19.6-6.22c2.86-.28,9-2.74,8.87-2.7a45.27,45.27,0,0,1-9,2.14,76.46,76.46,0,0,0-10,2.22A83.4,83.4,0,0,1,52,657.11c.52-.12,1.85-.68,2.42-.88,12.78-4,25.88-10.9,37.74-17.3-10.69,5.4-26,13.22-37.66,15.8-1,.16-1.9.28-2.87.37a69.25,69.25,0,0,0-7.21,1.33ZM34.7,666a26.36,26.36,0,0,1,2.66,1.33,92.19,92.19,0,0,1,15.76-4.19c11.74-2.18,23-7.54,33.75-12.79-10,4.48-23.06,10.25-34,11.42A97.92,97.92,0,0,0,34.7,666Zm3.22,1.66c1.22.68,2.51,1.44,3.76,2.21-5.65,3.31-11.3,6.57-16.94,9.92,2.54-1.57,10,5.36,12.58,3.88,3.55-2.11,7.14-4.2,10.68-6.3a37.2,37.2,0,0,1,9.08,3.59c16.77-3.43,31.93-10.77,47.21-18.47-15.81,5.72-32.21,11.61-49.19,11.61C48.41,673,37.6,675.53,31,677c6.93-2.46,16.13-5.85,23.43-6.74,13.66-2.54,26.37-8.54,38.78-14.63-10.56,4.07-24.27,9.07-35.6,10,12.26-3.31,23.83-8.75,35.2-14.36-11.69,5.16-26.69,11.86-39.43,13.07a76.89,76.89,0,0,0-15.45,3.23Z"/><path class="cls-1" d="M588.19,430.84q-51.53-30-103-60h0l-2.78-1.62h0c-2.42-1.4-4.84-2.82-7.26-4.23h0l-5.89-3.42-.12-.09-.08,0-.08,0-.12-.08-.08,0-.08,0-.08-.09-.12,0-.09,0-.07-.08-.09,0-.12,0-.08-.08-.08,0-.12,0-.08-.08-.08,0-.08,0-.12-.08-.08-.05-.08,0-.08-.08-.12,0-.09,0-.08,0-.08-.08-.12-.05-.08-.08-.08,0-.12,0-.08,0-.08-.09-.08,0-.12-.08-.08,0-.08,0-.12,0-.09-.08-.07,0-.09,0-.08-.08-.12-.05-.08,0-.12-.08-.08,0-.08-.05-.08-.07-.08,0-.13,0-.07-.09-.08,0-.13,0-.08-.08-.08,0-.08,0-.12-.08-.08,0-.08,0-.08-.09-.12,0-.08,0-.08-.08-.08,0-.12,0L340.92,286.63l.2-.37Q199.91,203.52,58.89,120.35c.73.44,1.86.16,3.31-.68C51,113.05,39.7,106.52,28.49,99.91c2,1.17,6.66-2.34,11.78-6.65C35,90.15,29.74,87.09,24.46,84c0,0,.2,0,.24,0-4.47-2.66-9-5.29-13.5-7.91C13.37,77.37,19.7,71.4,24,69c-2.06-1.26-4.16-2.47-6.21-3.67,2,1.2,5.32.2,9.19-1.85-7.22-4.24-14.44-8.43-21.65-12.67,2.46,1.46,7.42-1.45,12.46-4.52L.87,36.41c2.54,1.53,10-5.4,12.58-3.87,3.59,2.09,7.14,4.19,10.69,6.29,5.6-1.13,13.38-6,20.64-10.08-11.93-7-24-14-35.92-21,2,1.13,7.09-3.11,9.19-1.89l5,2.9C29.5,6.53,37.77,1.29,41.72,3.63c1.77,1,3.54,2.06,5.32,3.1C54.17,3.43,61.35.08,65.3,2.38Q87.2,15.21,109.13,28c4.76-2.74,8.75-4.19,11.17-2.78L325,145.19l0,.08,32.94,19.19,37.21,21.81,0,0L517,257.35l-.12.24c2.78,1.66,5.52,3.23,8.3,4.85l.12-.25,4.2,2.46-.12.24c2.94,1.74,5.88,3.43,8.87,5.16l.12-.24,2,1.17-.12.24q45.54,26.61,91.16,53.18c23.22,13.55-21.41,7.5,1.86,21.05l-.89,14.39-2.82,1.57,12,15.89c-2.41,1.45-28.91,7.74-31.28,9.15l31.81,6.09-20.93,13.23L616.94,414l-.08,0-.08.08-.12.05-.08,0-.08.08-.09,0-.08,0-.12.08-.08,0-.08,0-.12.09-.08,0-.08.05-.08.08-.12,0-.08.05-.08.08-.13,0-.07,0-.09.08-.08,0-.08,0-.12.08-.08,0-.08,0-.12.08-.08,0-.08,0-.08,0-.12.08-.08.05-.09.07-.12,0-.08,0-.08.05-.07.07-.13.05-.08.08-.08,0-.08,0-.12,0-.08.07-.08.05-.12,0-.08.08-.08,0-.09,0-.08.08-.12,0-.08,0-.08.08-.12,0-.08,0-.08.08-.08.05-.12,0-.08.07-.08,0-.12.05-.08.08-.09,0-.07,0-.09.08Z"/><path class="cls-2" d="M1091.81,260.1c-17.82,8.74-42,15.44-62.45,15.44a92.29,92.29,0,1,1,0-184.58,115,115,0,0,1,55.92,14.35l29.83-81.56C1080.16,5,1046.13,0,1007.26,0a183.27,183.27,0,1,0,0,366.54c38.87,0,82.37-7.54,114.39-24.92Z"/><path class="cls-2" d="M1457,238.56c-11-36.08-40.48-60.52-78.46-66.16,36.29-7.42,56.61-36.36,66.73-63.58,9.31-25,36.65-101.12,36.65-101.12H1369.2l-28.06,80c-11.53,32.18-22,45.77-62.86,45.77V7.22H1164.5V359.36h113.78V219.69c47.58,0,59.15,4,72,37.58,9.15,25.73,35.84,102.09,35.84,102.09H1499Z"/><path class="cls-2" d="M1705.17,275.41h-48.62v-63.9h46c22.18,0,38.26,5,38.26,30.12s-15.24,33.78-35.68,33.78ZM1718,133.21h-61.48V91.89h176V7.22H1543.17V359.36H1728c81.4,0,126.08-41.21,126.08-117.49,0-75.23-45.72-108.66-136.08-108.66Z"/><polygon class="cls-2" points="665.36 359.36 665.36 99.39 562.99 99.39 562.99 359.36 449.66 359.36 449.66 7.22 779.22 7.22 779.22 359.36 665.36 359.36"/><path class="cls-3" d="M552.79,483.1c-82.17,0-103.13,72.53-103.13,123,0,70.84,26.49,119,101.44,119,21.65,0,50.19-4.48,66.68-11l-5.52-20.65c-18.54,5.85-43.66,8.27-56,8.27-61.53,0-76.32-41.6-76.32-95.59,0-61.53,24.43-99.71,75.63-99.71,14.44,0,32,1.37,50.56,7.9l6.17-21.65c-14.07-5.16-34-9.59-59.47-9.59ZM744,722.38l.32-212.47h75.32V486.84H639.8v23.07h75.64V722.38Zm260.62,0L927.55,486.84H890.42c-23,71.53-49.84,150.6-77.69,235.54h29.91c6.53-20.28,12.74-40.92,19.27-61.56h92.82c6.53,20.64,12.7,41.28,19.23,61.56Zm-56.77-83.9h-78.7c12.7-40.55,21.65-70.15,32-104.18L908,510.91h1l6.85,23c11,34.39,21.69,69.79,32,104.54Zm238.29-83.22c0-45-30.24-68.42-73.22-68.42h-77.05V722.38h29.59l-.36-96.64H1116c54.31,0,70.12-41.93,70.12-70.48Zm-75.64-46c25.8,0,45.72,14.76,45.72,47.09,0,36.78-22.34,47.42-44.35,47.42h-46.77V509.22Zm199.78,213.16.32-212.47h75.31V486.84H1206.07v23.07h75.64V722.38Z"/></g></g></svg>